# xmcd
#
# Track frame offsets:
#	150
#	15275
#	24401
#	36126
#	52584
#	60743
#	80103
#	103882
#	108868
#	121369
#	131967
#	144258
#	159055
#	171020
#	176006
#	187646
#	196765
#	201550
#	207593
#	227380
#
# Disc length: 3217 seconds
#
# Revision: 2
# Processed by: cddbd v1.5.2PL0 Copyright (c) Steve Scherf et al.
# Submitted via: EZCDAudioConverter 1.3.4.1
#
DISCID=010c8f14
DTITLE=Fairfield Parlour - From Home To Home
DYEAR=1970
DGENRE=
TTITLE0=Aries
TTITLE1=In My Box
TTITLE2=By Your Bedside
TTITLE3=Soldier Of The Flesh
TTITLE4=I Will Always Feel The Same
TTITLE5=Free
TTITLE6=Emily
TTITLE7=Chalk On The Wall
TTITLE8=The Glorious House Of Arthur
TTITLE9=Monkey
TTITLE10=Sunny Side Circus
TTITLE11=Drummer Boy Of Shiloh
TTITLE12=Bordeaux Rose
TTITLE13=Chalk On The Wall [Mono Single]
TTITLE14=Just Another Day
TTITLE15=Caraminda
TTITLE16=I Am All The Animals
TTITLE17=Song For You
TTITLE18=Bordeaux Rose [Alternate]
TTITLE19=Baby Stay For Tonight
EXTD=
EXTT0=
EXTT1=
EXTT2=
EXTT3=
EXTT4=
EXTT5=
EXTT6=
EXTT7=
EXTT8=
EXTT9=
EXTT10=
EXTT11=
EXTT12=
EXTT13=
EXTT14=
EXTT15=
EXTT16=
EXTT17=
EXTT18=
EXTT19=
PLAYORDER=
